<mxfile host="Electron" modified="2023-06-28T11:40:23.632Z" agent="Mozilla/5.0 (Macintosh; Intel Mac OS X 10_15_7) AppleWebKit/537.36 (KHTML, like Gecko) draw.io/21.5.1 Chrome/112.0.5615.204 Electron/24.6.0 Safari/537.36" etag="e5Jz41ileozLwMHnn_lV" version="21.5.1" type="device">
  <diagram name="Seite-1" id="2gZV31Bo3-9vgHwdqufG">
    <mxGraphModel dx="1591" dy="1221" grid="1" gridSize="10" guides="1" tooltips="1" connect="1" arrows="1" fold="1" page="1" pageScale="1" pageWidth="827" pageHeight="1169" math="0" shadow="0">
      <root>
        <mxCell id="0" />
        <mxCell id="1" parent="0" />
        <mxCell id="xFvDxiNizRQ3jp9mU_UO-1" value="Light valve node packet" style="swimlane;childLayout=stackLayout;resizeParent=1;resizeParentMax=0;startSize=20;html=1;" vertex="1" parent="1">
          <mxGeometry x="30" y="190" width="1680" height="110" as="geometry">
            <mxRectangle x="230.00000000000045" y="200" width="70" height="30" as="alternateBounds" />
          </mxGeometry>
        </mxCell>
        <mxCell id="xFvDxiNizRQ3jp9mU_UO-2" value="Bit 0" style="swimlane;startSize=20;html=1;" vertex="1" parent="xFvDxiNizRQ3jp9mU_UO-1">
          <mxGeometry y="20" width="120" height="90" as="geometry" />
        </mxCell>
        <mxCell id="xFvDxiNizRQ3jp9mU_UO-13" value="Start of clock timing transition pair" style="text;html=1;strokeColor=none;fillColor=none;align=center;verticalAlign=middle;whiteSpace=wrap;rounded=0;" vertex="1" parent="xFvDxiNizRQ3jp9mU_UO-2">
          <mxGeometry y="40" width="120" height="30" as="geometry" />
        </mxCell>
        <mxCell id="xFvDxiNizRQ3jp9mU_UO-3" value="Bit 1" style="swimlane;startSize=20;html=1;" vertex="1" parent="xFvDxiNizRQ3jp9mU_UO-1">
          <mxGeometry x="120" y="20" width="120" height="90" as="geometry" />
        </mxCell>
        <mxCell id="xFvDxiNizRQ3jp9mU_UO-14" value="End of clock timing transition pair" style="text;html=1;strokeColor=none;fillColor=none;align=center;verticalAlign=middle;whiteSpace=wrap;rounded=0;" vertex="1" parent="xFvDxiNizRQ3jp9mU_UO-3">
          <mxGeometry y="40" width="120" height="30" as="geometry" />
        </mxCell>
        <mxCell id="xFvDxiNizRQ3jp9mU_UO-4" value="Bit 2" style="swimlane;startSize=20;html=1;" vertex="1" parent="xFvDxiNizRQ3jp9mU_UO-1">
          <mxGeometry x="240" y="20" width="120" height="90" as="geometry" />
        </mxCell>
        <mxCell id="xFvDxiNizRQ3jp9mU_UO-29" value="Bit 0 of start bits" style="text;html=1;strokeColor=none;fillColor=none;align=center;verticalAlign=middle;whiteSpace=wrap;rounded=0;" vertex="1" parent="xFvDxiNizRQ3jp9mU_UO-4">
          <mxGeometry y="40" width="120" height="30" as="geometry" />
        </mxCell>
        <mxCell id="xFvDxiNizRQ3jp9mU_UO-5" value="Bit 4" style="swimlane;startSize=20;html=1;" vertex="1" parent="xFvDxiNizRQ3jp9mU_UO-1">
          <mxGeometry x="360" y="20" width="120" height="90" as="geometry" />
        </mxCell>
        <mxCell id="xFvDxiNizRQ3jp9mU_UO-31" value="Bit 1 of start bits" style="text;html=1;strokeColor=none;fillColor=none;align=center;verticalAlign=middle;whiteSpace=wrap;rounded=0;" vertex="1" parent="xFvDxiNizRQ3jp9mU_UO-5">
          <mxGeometry y="40" width="120" height="30" as="geometry" />
        </mxCell>
        <mxCell id="xFvDxiNizRQ3jp9mU_UO-6" value="Bit 5" style="swimlane;startSize=20;html=1;" vertex="1" parent="xFvDxiNizRQ3jp9mU_UO-1">
          <mxGeometry x="480" y="20" width="120" height="90" as="geometry" />
        </mxCell>
        <mxCell id="xFvDxiNizRQ3jp9mU_UO-32" value="Bit 2 of start bits" style="text;html=1;strokeColor=none;fillColor=none;align=center;verticalAlign=middle;whiteSpace=wrap;rounded=0;" vertex="1" parent="xFvDxiNizRQ3jp9mU_UO-6">
          <mxGeometry y="40" width="120" height="30" as="geometry" />
        </mxCell>
        <mxCell id="xFvDxiNizRQ3jp9mU_UO-9" value="Bit 6" style="swimlane;startSize=20;html=1;" vertex="1" parent="xFvDxiNizRQ3jp9mU_UO-1">
          <mxGeometry x="600" y="20" width="120" height="90" as="geometry" />
        </mxCell>
        <mxCell id="xFvDxiNizRQ3jp9mU_UO-33" value="Bit 3 of start bits" style="text;html=1;strokeColor=none;fillColor=none;align=center;verticalAlign=middle;whiteSpace=wrap;rounded=0;" vertex="1" parent="xFvDxiNizRQ3jp9mU_UO-9">
          <mxGeometry y="40" width="120" height="30" as="geometry" />
        </mxCell>
        <mxCell id="xFvDxiNizRQ3jp9mU_UO-10" value="Bit 7" style="swimlane;startSize=20;html=1;" vertex="1" parent="xFvDxiNizRQ3jp9mU_UO-1">
          <mxGeometry x="720" y="20" width="120" height="90" as="geometry" />
        </mxCell>
        <mxCell id="xFvDxiNizRQ3jp9mU_UO-44" value="Bit 0 of address bits" style="text;html=1;strokeColor=none;fillColor=none;align=center;verticalAlign=middle;whiteSpace=wrap;rounded=0;" vertex="1" parent="xFvDxiNizRQ3jp9mU_UO-10">
          <mxGeometry y="40" width="120" height="30" as="geometry" />
        </mxCell>
        <mxCell id="xFvDxiNizRQ3jp9mU_UO-7" value="Bit 8" style="swimlane;startSize=20;html=1;" vertex="1" parent="xFvDxiNizRQ3jp9mU_UO-1">
          <mxGeometry x="840" y="20" width="120" height="90" as="geometry" />
        </mxCell>
        <mxCell id="xFvDxiNizRQ3jp9mU_UO-45" value="Bit 1 of address bits" style="text;html=1;strokeColor=none;fillColor=none;align=center;verticalAlign=middle;whiteSpace=wrap;rounded=0;" vertex="1" parent="xFvDxiNizRQ3jp9mU_UO-7">
          <mxGeometry y="40" width="120" height="30" as="geometry" />
        </mxCell>
        <mxCell id="xFvDxiNizRQ3jp9mU_UO-12" value="Bit 9" style="swimlane;startSize=20;html=1;" vertex="1" parent="xFvDxiNizRQ3jp9mU_UO-1">
          <mxGeometry x="960" y="20" width="120" height="90" as="geometry" />
        </mxCell>
        <mxCell id="xFvDxiNizRQ3jp9mU_UO-46" value="Bit 2 of address bits" style="text;html=1;strokeColor=none;fillColor=none;align=center;verticalAlign=middle;whiteSpace=wrap;rounded=0;" vertex="1" parent="xFvDxiNizRQ3jp9mU_UO-12">
          <mxGeometry y="40" width="120" height="30" as="geometry" />
        </mxCell>
        <mxCell id="xFvDxiNizRQ3jp9mU_UO-11" value="Bit 10" style="swimlane;startSize=20;html=1;" vertex="1" parent="xFvDxiNizRQ3jp9mU_UO-1">
          <mxGeometry x="1080" y="20" width="120" height="90" as="geometry" />
        </mxCell>
        <mxCell id="xFvDxiNizRQ3jp9mU_UO-47" value="Bit 3 of address bits" style="text;html=1;strokeColor=none;fillColor=none;align=center;verticalAlign=middle;whiteSpace=wrap;rounded=0;" vertex="1" parent="xFvDxiNizRQ3jp9mU_UO-11">
          <mxGeometry y="40" width="120" height="30" as="geometry" />
        </mxCell>
        <mxCell id="xFvDxiNizRQ3jp9mU_UO-41" value="Bit 11" style="swimlane;startSize=20;html=1;" vertex="1" parent="xFvDxiNizRQ3jp9mU_UO-1">
          <mxGeometry x="1200" y="20" width="120" height="90" as="geometry" />
        </mxCell>
        <mxCell id="xFvDxiNizRQ3jp9mU_UO-48" value="Bit 0 of data bits" style="text;html=1;strokeColor=none;fillColor=none;align=center;verticalAlign=middle;whiteSpace=wrap;rounded=0;" vertex="1" parent="xFvDxiNizRQ3jp9mU_UO-41">
          <mxGeometry y="40" width="120" height="30" as="geometry" />
        </mxCell>
        <mxCell id="xFvDxiNizRQ3jp9mU_UO-42" value="Bit 12" style="swimlane;startSize=20;html=1;" vertex="1" parent="xFvDxiNizRQ3jp9mU_UO-1">
          <mxGeometry x="1320" y="20" width="120" height="90" as="geometry" />
        </mxCell>
        <mxCell id="xFvDxiNizRQ3jp9mU_UO-49" value="Bit 1 of data bits" style="text;html=1;strokeColor=none;fillColor=none;align=center;verticalAlign=middle;whiteSpace=wrap;rounded=0;" vertex="1" parent="xFvDxiNizRQ3jp9mU_UO-42">
          <mxGeometry y="40" width="120" height="30" as="geometry" />
        </mxCell>
        <mxCell id="xFvDxiNizRQ3jp9mU_UO-43" value="Bit 13" style="swimlane;startSize=20;html=1;" vertex="1" parent="xFvDxiNizRQ3jp9mU_UO-1">
          <mxGeometry x="1440" y="20" width="120" height="90" as="geometry" />
        </mxCell>
        <mxCell id="xFvDxiNizRQ3jp9mU_UO-50" value="Bit 2 of data bits" style="text;html=1;strokeColor=none;fillColor=none;align=center;verticalAlign=middle;whiteSpace=wrap;rounded=0;" vertex="1" parent="xFvDxiNizRQ3jp9mU_UO-43">
          <mxGeometry y="40" width="120" height="30" as="geometry" />
        </mxCell>
        <mxCell id="xFvDxiNizRQ3jp9mU_UO-8" value="Bit 14" style="swimlane;startSize=20;html=1;" vertex="1" parent="xFvDxiNizRQ3jp9mU_UO-1">
          <mxGeometry x="1560" y="20" width="120" height="90" as="geometry" />
        </mxCell>
        <mxCell id="xFvDxiNizRQ3jp9mU_UO-51" value="Bit 3 of data bits" style="text;html=1;strokeColor=none;fillColor=none;align=center;verticalAlign=middle;whiteSpace=wrap;rounded=0;" vertex="1" parent="xFvDxiNizRQ3jp9mU_UO-8">
          <mxGeometry y="40" width="120" height="30" as="geometry" />
        </mxCell>
        <mxCell id="xFvDxiNizRQ3jp9mU_UO-35" value="Start bits always expected to be 0xA" style="text;html=1;strokeColor=none;fillColor=none;align=center;verticalAlign=middle;whiteSpace=wrap;rounded=0;" vertex="1" parent="1">
          <mxGeometry x="400" y="330" width="220" height="30" as="geometry" />
        </mxCell>
        <mxCell id="xFvDxiNizRQ3jp9mU_UO-36" value="" style="endArrow=none;html=1;rounded=0;exitX=1;exitY=0.5;exitDx=0;exitDy=0;" edge="1" parent="1" source="xFvDxiNizRQ3jp9mU_UO-35">
          <mxGeometry width="50" height="50" relative="1" as="geometry">
            <mxPoint x="550" y="370" as="sourcePoint" />
            <mxPoint x="690" y="310" as="targetPoint" />
            <Array as="points">
              <mxPoint x="690" y="345" />
            </Array>
          </mxGeometry>
        </mxCell>
        <mxCell id="xFvDxiNizRQ3jp9mU_UO-37" value="" style="endArrow=none;html=1;rounded=0;exitX=1;exitY=0.5;exitDx=0;exitDy=0;entryX=0;entryY=0.5;entryDx=0;entryDy=0;" edge="1" parent="1" target="xFvDxiNizRQ3jp9mU_UO-35">
          <mxGeometry width="50" height="50" relative="1" as="geometry">
            <mxPoint x="330" y="315" as="sourcePoint" />
            <mxPoint x="400" y="280" as="targetPoint" />
            <Array as="points">
              <mxPoint x="330" y="345" />
            </Array>
          </mxGeometry>
        </mxCell>
        <mxCell id="xFvDxiNizRQ3jp9mU_UO-38" value="" style="endArrow=none;html=1;rounded=0;exitX=1;exitY=0.5;exitDx=0;exitDy=0;" edge="1" parent="1">
          <mxGeometry width="50" height="50" relative="1" as="geometry">
            <mxPoint x="40" y="310" as="sourcePoint" />
            <mxPoint x="60" y="340" as="targetPoint" />
            <Array as="points">
              <mxPoint x="40" y="340" />
            </Array>
          </mxGeometry>
        </mxCell>
        <mxCell id="xFvDxiNizRQ3jp9mU_UO-39" value="" style="endArrow=none;html=1;rounded=0;" edge="1" parent="1">
          <mxGeometry width="50" height="50" relative="1" as="geometry">
            <mxPoint x="240" y="345" as="sourcePoint" />
            <mxPoint x="260" y="310" as="targetPoint" />
            <Array as="points">
              <mxPoint x="260" y="345" />
            </Array>
          </mxGeometry>
        </mxCell>
        <mxCell id="xFvDxiNizRQ3jp9mU_UO-40" value="Time between transitions sets the amount of time the node firmware should consider a single clock cycle for measuring the following bits" style="text;html=1;strokeColor=none;fillColor=none;align=center;verticalAlign=middle;whiteSpace=wrap;rounded=0;" vertex="1" parent="1">
          <mxGeometry x="70" y="340" width="160" height="30" as="geometry" />
        </mxCell>
        <mxCell id="xFvDxiNizRQ3jp9mU_UO-52" value="Signify which node out of the 16 on one bus should process the packet" style="text;html=1;strokeColor=none;fillColor=none;align=center;verticalAlign=middle;whiteSpace=wrap;rounded=0;" vertex="1" parent="1">
          <mxGeometry x="880" y="330" width="220" height="30" as="geometry" />
        </mxCell>
        <mxCell id="xFvDxiNizRQ3jp9mU_UO-53" value="" style="endArrow=none;html=1;rounded=0;exitX=1;exitY=0.5;exitDx=0;exitDy=0;" edge="1" parent="1" source="xFvDxiNizRQ3jp9mU_UO-52">
          <mxGeometry width="50" height="50" relative="1" as="geometry">
            <mxPoint x="1030" y="370" as="sourcePoint" />
            <mxPoint x="1170" y="310" as="targetPoint" />
            <Array as="points">
              <mxPoint x="1170" y="345" />
            </Array>
          </mxGeometry>
        </mxCell>
        <mxCell id="xFvDxiNizRQ3jp9mU_UO-54" value="" style="endArrow=none;html=1;rounded=0;exitX=1;exitY=0.5;exitDx=0;exitDy=0;entryX=0;entryY=0.5;entryDx=0;entryDy=0;" edge="1" parent="1" target="xFvDxiNizRQ3jp9mU_UO-52">
          <mxGeometry width="50" height="50" relative="1" as="geometry">
            <mxPoint x="810" y="315" as="sourcePoint" />
            <mxPoint x="880" y="280" as="targetPoint" />
            <Array as="points">
              <mxPoint x="810" y="345" />
            </Array>
          </mxGeometry>
        </mxCell>
        <mxCell id="xFvDxiNizRQ3jp9mU_UO-55" value="The opacity to set, 16 shades possible" style="text;html=1;strokeColor=none;fillColor=none;align=center;verticalAlign=middle;whiteSpace=wrap;rounded=0;" vertex="1" parent="1">
          <mxGeometry x="1364" y="330" width="220" height="30" as="geometry" />
        </mxCell>
        <mxCell id="xFvDxiNizRQ3jp9mU_UO-56" value="" style="endArrow=none;html=1;rounded=0;exitX=1;exitY=0.5;exitDx=0;exitDy=0;" edge="1" parent="1" source="xFvDxiNizRQ3jp9mU_UO-55">
          <mxGeometry width="50" height="50" relative="1" as="geometry">
            <mxPoint x="1514" y="370" as="sourcePoint" />
            <mxPoint x="1654" y="310" as="targetPoint" />
            <Array as="points">
              <mxPoint x="1654" y="345" />
            </Array>
          </mxGeometry>
        </mxCell>
        <mxCell id="xFvDxiNizRQ3jp9mU_UO-57" value="" style="endArrow=none;html=1;rounded=0;exitX=1;exitY=0.5;exitDx=0;exitDy=0;entryX=0;entryY=0.5;entryDx=0;entryDy=0;" edge="1" parent="1" target="xFvDxiNizRQ3jp9mU_UO-55">
          <mxGeometry width="50" height="50" relative="1" as="geometry">
            <mxPoint x="1294" y="315" as="sourcePoint" />
            <mxPoint x="1364" y="280" as="targetPoint" />
            <Array as="points">
              <mxPoint x="1294" y="345" />
            </Array>
          </mxGeometry>
        </mxCell>
      </root>
    </mxGraphModel>
  </diagram>
</mxfile>
